<svg xmlns:cc="http://web.resource.org/cc/" xmlns:svg="http://www.w3.org/2000/svg" xmlns:dc="http://purl.org/dc/elements/1.1/" xmlns:inkscape="http://www.inkscape.org/namespaces/inkscape" xmlns:rdf="http://www.w3.org/1999/02/22-rdf-syntax-ns#" xmlns:sodipodi="http://sodipodi.sourceforge.net/DTD/sodipodi-0.dtd" xmlns="http://www.w3.org/2000/svg" xmlns:xlink="http://www.w3.org/1999/xlink" version="1.1" id="svg2759" sodipodi:version="0.32" inkscape:version="0.45+devel" sodipodi:docname="by.svg" inkscape:output_extension="org.inkscape.output.svg.inkscape" x="0px" y="0px" viewBox="-39 202 690 375" enable-background="new -39 202 690 375" xml:space="preserve"><style xmlns="" class="adjust-screen-brightness" media="screen"/>
<sodipodi:namedview width="120px" height="42px" inkscape:showpageshadow="false" inkscape:window-y="242" inkscape:current-layer="layer1" inkscape:window-x="396" inkscape:document-units="px" inkscape:window-height="624" inkscape:window-width="1198" inkscape:pageopacity="0.0" inkscape:pageshadow="2" inkscape:cx="179" gridtolerance="10000" bordercolor="#8b8b8b" guidetolerance="10" id="base" borderopacity="1" objecttolerance="10" inkscape:zoom="1" inkscape:cy="89.569904" pagecolor="#ffffff">
    </sodipodi:namedview>
<g>
    <path fill="#FFFFFF" d="M147,202C44.4,202-39,285.4-39,388s83.4,186,186,186s186-83.4,186-186S249.6,202,147,202z M147,542   C62.1,542-7,472.9-7,388s69.1-154,154-154s154,69.1,154,154S231.9,542,147,542z"/>
    <path fill="#FFFFFF" d="M207.5,421.5c-16.8,0-25.2-11.1-25.2-33.2s8.4-33.2,25.2-33.2c9,0,15.9,5.1,20.6,15.3l25.1-12.5   c-9.8-18.1-26.3-27.1-49.3-27.1c-15.8,0-28.8,5.2-39.1,15.6c-10.3,10.4-15.4,24.5-15.4,42.3c0,18.1,5.1,32.2,15.1,42.5   c10.1,10.3,23.5,15.4,40.2,15.4c21.7,0,38-9.6,48.8-28.9l-23.3-12.1C226.1,416.1,218.4,421.5,207.5,421.5z"/>
    <path fill="#FFFFFF" d="M99.8,421.5c-16.4,0-24.6-11.1-24.6-33.2S83.3,355,99.8,355c9.3,0,16.3,5.1,20.9,15.3l24.6-12.5   c-9.9-18.1-26.4-27.1-49.4-27.1c-15.5,0-28.5,5.2-38.9,15.6c-10.4,10.4-15.6,24.5-15.6,42.3c0,18.1,5.1,32.2,15.1,42.5   c10.2,10.3,23.6,15.4,40.4,15.4c21.7,0,38.1-9.6,48.9-28.9l-22.8-12.1C118.5,416.1,110.7,421.5,99.8,421.5z"/>
    <path fill="#FFFFFF" d="M532.7,300.8h-58.8c-5.1,0-9.2,4.2-9.2,9.3v58.8h16.4v69.6h44.5v-69.6h16.4v-58.8   C541.9,305,537.8,300.8,532.7,300.8z"/>
    <path fill="#FFFFFF" d="M503.3,293.1c11.1,0,20.1-9,20.1-20.1c0-11.1-9-20.1-20.1-20.1c-11.1,0-20.1,9.1-20.1,20.1   C483.2,284.1,492.2,293.1,503.3,293.1z"/>
</g>
<g>
    <path fill="#FFFFFF" d="M505,494c-80.5,0-146-65.5-146-146s65.5-146,146-146s146,65.5,146,146S585.5,494,505,494z M505,230   c-65.1,0-118,52.9-118,118s52.9,118,118,118s118-52.9,118-118S570.1,230,505,230z"/>
</g>
<path fill="#FFFFFF" d="M538.3,525c-1.7,2.9-1.9,3.3-2.7,5.3L521.4,506h-19l24.8,37.9V577h16.3v-33.6l25-37.4h-18.8L538.3,525z"/>
<path fill="#FFFFFF" d="M486.2,540.5c3.6-0.8,9.9-2.2,12.9-9.5c0.3-0.7,1.2-3,1.2-6.8c0-6.7-3.3-13.7-11.4-16.5  c-4-1.4-10.3-1.7-17.2-1.7h-25.5v71h27.9c7.6,0,12.9-0.3,17.9-2.6c8.2-3.9,10.9-11.7,10.9-17.2c0-4-1.3-7.9-3.6-10.7  C495.6,542.1,490.2,541.2,486.2,540.5z M461.9,519.3h13.6c3.2,0,8.7,0.3,8.7,7.1c0,7.3-6.1,7.5-9.8,7.6h-12.4V519.3z M473.4,564.1  h-11.5v-17.2h14.3c3.4,0.1,9.9,0.2,9.9,8.7C486.1,563.8,478.9,564,473.4,564.1z"/>
</svg>